# xmcd
#
# Track frame offsets: 
#        150
#        15956
#        31111
#        43799
#        62555
#
# Disc length: 984 seconds
#
# Revision: 0
# Processed by: cddbd v1.5PL3 Copyright (c) Steve Scherf et al.
# Submitted via: ExactAudioCopy v0.95a4
#
DISCID=2f03d605
DTITLE=lupus nensén - untitled
DYEAR=2003
DGENRE=Singer/Songwriter
TTITLE0=eight seconds
TTITLE1=between heaven and a secret
TTITLE2=she lost herself
TTITLE3=looking around
TTITLE4=corns of sand
EXTD=
EXTT0=
EXTT1=
EXTT2=
EXTT3=
EXTT4=
PLAYORDER=
